<?xml version="1.0" encoding="UTF-8" standalone="no"?>
<!-- Created with Inkscape (http://www.inkscape.org/) -->

<svg
   width="210mm"
   height="297mm"
   viewBox="0 0 210 297"
   version="1.1"
   id="svg5"
   xml:space="preserve"
   inkscape:version="1.2.1 (9c6d41e410, 2022-07-14)"
   sodipodi:docname="lfcc.svg"
   inkscape:export-filename="lfcc.svg"
   inkscape:export-xdpi="145.14285"
   inkscape:export-ydpi="145.14285"
   xmlns:inkscape="http://www.inkscape.org/namespaces/inkscape"
   xmlns:sodipodi="http://sodipodi.sourceforge.net/DTD/sodipodi-0.dtd"
   xmlns="http://www.w3.org/2000/svg"
   xmlns:svg="http://www.w3.org/2000/svg"><sodipodi:namedview
     id="namedview7"
     pagecolor="#ffffff"
     bordercolor="#000000"
     borderopacity="0.25"
     inkscape:showpageshadow="2"
     inkscape:pageopacity="0.0"
     inkscape:pagecheckerboard="0"
     inkscape:deskcolor="#d1d1d1"
     inkscape:document-units="mm"
     showgrid="false"
     inkscape:zoom="0.26774303"
     inkscape:cx="220.36055"
     inkscape:cy="470.60049"
     inkscape:window-width="1366"
     inkscape:window-height="697"
     inkscape:window-x="-8"
     inkscape:window-y="-8"
     inkscape:window-maximized="1"
     inkscape:current-layer="layer1" /><defs
     id="defs2" /><g
     inkscape:label="Camada 1"
     inkscape:groupmode="layer"
     id="layer1"><path
       id="path289"
       style="fill:#ff00ff;stroke:none;stroke-width:1.87146"
       d="m 178.89722,-6.1048527 c -4.93337,0.030313 -10.44372,1.097631 -16.4799,3.1034329 L 127.01764,11.492602 c -36.802507,7.246176 -7.86705,21.739162 5.89879,21.739162 44.66866,-7.850039 58.9988,44.07763 55.62758,74.269986 -16.57517,63.10216 19.10402,41.063 21.07056,-9.056352 C 209.33378,60.10103 209.05321,48.023554 206.24387,24.171559 203.29571,3.0337932 193.69735,-6.1962043 178.89722,-6.1048527 Z M 73.724164,30.772509 C 50.850344,30.806228 30.029259,38.749248 14.080629,54.061451 -13.731946,87.575018 -4.458534,84.859271 20.825608,69.461135 59.71392,49.011261 84.827063,53.523864 125.33225,62.216013 147.80708,71.575642 156.7988,69.158335 137.13333,49.533271 115.69111,36.871027 93.906953,30.742746 73.724164,30.772509 Z M 223.86968,68.888957 c -6.32565,0.134419 -6.27123,13.626592 -4.69649,22.622041 11.14109,34.013492 -13.11574,54.438862 -24.7304,69.431092 -28.37445,25.36169 -40.73475,68.84197 -53.93871,107.79015 -18.26079,45.89237 7.3029,46.49427 33.71081,39.8519 26.96977,-18.1155 69.9551,-23.54792 80.91159,-92.38663 4.96067,-57.29668 4.02358,-97.99249 -16.85716,-135.868693 -6.69765,-8.386778 -11.31038,-11.505406 -14.39964,-11.43986 z m -52.39442,0.0065 C 167.82313,69.084289 161.01135,80.028101 147.24555,91.199248 108.34743,136.05345 -51.392889,187.75771 46.109594,172.71824 l 69.953156,-2.71685 c 49.62,0.58813 59.7264,-19.41342 60.6802,-58.87421 -1.12373,-31.853023 -1.61551,-42.420331 -5.26769,-42.231628 z m -50.00735,3.103432 c -1.39265,-0.0092 -2.91195,0.04588 -4.56247,0.178244 l -67.425121,2.716898 c -39.330901,-2.7173 -21.352861,9.058786 -11.801067,19.022207 26.688819,22.418642 53.380071,25.573872 80.068848,4.52825 17.1195,-10.75609 24.6099,-26.287358 3.71981,-26.44545 z M -15.328615,82.97643 c -3.794508,-0.0281 -10.409922,8.853348 -17.784462,19.09042 -28.483475,47.52679 0.690706,87.41742 32.86811801,66.12309 L 46.109594,141.01702 c 29.217238,-15.70001 39.892149,-16.00292 4.21341,-19.9279 -37.087282,11.78111 -64.488353,3.28859 -63.211719,-15.39968 1.909476,-16.553932 0.704123,-22.690531 -2.4399,-22.71301 z M 114.88159,177.0645 c -35.240319,-0.26411 -63.786705,14.03454 -83.943799,13.7703 l -46.354553,6.33946 c -22.4748,4.83086 -33.147667,23.24708 5.9023,33.51253 32.869391,17.51145 52.252546,50.4217 81.750724,75.1794 63.229988,39.7322 41.935378,-25.44363 75.009288,-102.35242 10.39455,-9.35965 14.04568,-25.0598 -16.85718,-25.36169 -5.30266,-0.71714 -10.47244,-1.04981 -15.50678,-1.08758 z" /></g></svg>
